<svg width="70" height="14" fill="none" xmlns="http://www.w3.org/2000/svg"><path d="M11.604 5.338 8.63 4.905 7.299 2.21a.377.377 0 0 0-.673 0l-1.33 2.696-2.975.433a.374.374 0 0 0-.208.64l2.153 2.098-.508 2.964a.374.374 0 0 0 .543.395l2.662-1.4 2.661 1.4a.374.374 0 0 0 .544-.395l-.509-2.964 2.153-2.099a.374.374 0 0 0-.207-.64ZM25.604 5.338l-2.975-.433-1.33-2.696a.377.377 0 0 0-.673 0l-1.33 2.696-2.975.433a.374.374 0 0 0-.208.64l2.153 2.098-.508 2.964a.374.374 0 0 0 .543.395l2.662-1.4 2.661 1.4a.374.374 0 0 0 .544-.395l-.509-2.964 2.153-2.099a.374.374 0 0 0-.208-.64ZM39.604 5.338l-2.975-.433-1.33-2.696a.377.377 0 0 0-.673 0l-1.33 2.696-2.975.433a.374.374 0 0 0-.208.64l2.153 2.098-.508 2.964a.374.374 0 0 0 .543.395l2.662-1.4 2.661 1.4a.374.374 0 0 0 .544-.395l-.509-2.964 2.153-2.099a.374.374 0 0 0-.208-.64ZM53.604 5.338l-2.975-.433-1.33-2.696a.377.377 0 0 0-.673 0l-1.33 2.696-2.975.433a.374.374 0 0 0-.208.64l2.153 2.098-.508 2.964a.374.374 0 0 0 .543.395l2.662-1.4 2.661 1.4a.374.374 0 0 0 .544-.395l-.509-2.964 2.153-2.099a.374.374 0 0 0-.208-.64ZM67.604 5.338l-2.975-.433-1.33-2.696a.377.377 0 0 0-.673 0l-1.33 2.696-2.975.433a.374.374 0 0 0-.208.64l2.153 2.098-.508 2.964a.374.374 0 0 0 .543.395l2.662-1.4 2.661 1.4a.374.374 0 0 0 .544-.395l-.509-2.964 2.153-2.099a.374.374 0 0 0-.207-.64Z" fill="#FFD168"/></svg>
